<svg width="800" height="800" viewBox="0 0 800 800" xmlns="http://www.w3.org/2000/svg">
  <defs>
    <linearGradient id="bgGradient" x1="0%" y1="0%" x2="100%" y2="100%">
      <stop offset="0%" style="stop-color:#f8f9fa;stop-opacity:1" />
      <stop offset="100%" style="stop-color:#e9ecef;stop-opacity:1" />
    </linearGradient>
    <linearGradient id="personGradient" x1="0%" y1="0%" x2="100%" y2="100%">
      <stop offset="0%" style="stop-color:#6c757d;stop-opacity:1" />
      <stop offset="100%" style="stop-color:#495057;stop-opacity:1" />
    </linearGradient>
    <radialGradient id="shadowGradient" cx="50%" cy="50%" r="50%">
      <stop offset="0%" style="stop-color:#000000;stop-opacity:0.1" />
      <stop offset="100%" style="stop-color:#000000;stop-opacity:0" />
    </radialGradient>
  </defs>
  
  <!-- Background circle -->
  <circle cx="400" cy="400" r="400" fill="url(#bgGradient)"/>
  
  <!-- Subtle shadow -->
  <circle cx="400" cy="410" r="350" fill="url(#shadowGradient)" opacity="0.3"/>
  
  <!-- Person silhouette with more detail -->
  <g fill="url(#personGradient)">
    <!-- Head -->
    <circle cx="400" cy="260" r="100"/>
    
    <!-- Neck -->
    <rect x="380" y="350" width="40" height="30" rx="20"/>
    
    <!-- Shoulders/Body -->
    <path d="M 400 380 
             C 360 380, 320 390, 290 410
             C 260 430, 240 460, 240 500
             L 240 800
             L 560 800
             L 560 500
             C 560 460, 540 430, 510 410
             C 480 390, 440 380, 400 380 Z"/>
  </g>
  
  <!-- Highlight on head -->
  <ellipse cx="380" cy="240" rx="30" ry="40" fill="#ffffff" opacity="0.2"/>
  
  <!-- Inner border -->
  <circle cx="400" cy="400" r="390" fill="none" stroke="#dee2e6" stroke-width="3"/>
</svg>
